<svg width="24" height="24" viewBox="0 0 24 24" fill="none" xmlns="http://www.w3.org/2000/svg">
<path d="M3.99487 9C3.99487 6.17157 3.99487 4.75736 4.87243 3.87868C5.74999 3 7.1624 3 9.98722 3H13.9821C16.8069 3 18.2194 3 19.0969 3.87868C19.9745 4.75736 19.9745 6.17157 19.9745 9V15.8276C19.9745 18.5109 19.9745 19.8525 19.1313 20.2629C18.288 20.6733 17.2344 19.8444 15.1272 18.1866L14.4528 17.656C13.2679 16.7239 12.6755 16.2578 11.9847 16.2578C11.2938 16.2578 10.7014 16.7239 9.51654 17.656L8.84215 18.1866C6.73492 19.8444 5.68131 20.6733 4.83809 20.2629C3.99487 19.8525 3.99487 18.5109 3.99487 15.8276V9Z" stroke="#222222"/>
</svg>
