<svg width="24" height="24" viewBox="0 0 24 24" fill="none" xmlns="http://www.w3.org/2000/svg">
<path d="M14.9809 3H8.98855C6.78223 3 4.99365 4.79086 4.99365 7V15" stroke="#222222"/>
<path d="M8.48975 11.5C8.48975 10.3156 8.49049 9.46909 8.564 8.81618C8.63638 8.1733 8.77399 7.78028 9.00576 7.47785C9.13859 7.30453 9.29352 7.1494 9.46659 7.01643C9.76847 6.78449 10.1607 6.64679 10.8025 6.57434C11.4545 6.50075 12.2998 6.5 13.4827 6.5C14.6657 6.5 15.511 6.50075 16.1629 6.57434C16.8048 6.64679 17.197 6.78449 17.4989 7.01643C17.6719 7.1494 17.8269 7.30453 17.9597 7.47785C18.1915 7.78028 18.3291 8.1733 18.4015 8.81618C18.475 9.46909 18.4757 10.3156 18.4757 11.5V15.5C18.4757 16.6844 18.475 17.5309 18.4015 18.1838C18.3291 18.8267 18.1915 19.2197 17.9597 19.5221C17.8269 19.6955 17.6719 19.8506 17.4989 19.9836C17.197 20.2155 16.8048 20.3532 16.1629 20.4257C15.511 20.4993 14.6657 20.5 13.4827 20.5C12.2998 20.5 11.4545 20.4993 10.8025 20.4257C10.1607 20.3532 9.76847 20.2155 9.46659 19.9836C9.29352 19.8506 9.13859 19.6955 9.00576 19.5221C8.77399 19.2197 8.63638 18.8267 8.564 18.1838C8.49049 17.5309 8.48975 16.6844 8.48975 15.5V11.5Z" stroke="#222222"/>
</svg>
