<svg width="24" height="24" viewBox="0 0 24 24" fill="none" xmlns="http://www.w3.org/2000/svg">
<path d="M9.48792 14.5L9.48792 11.5" stroke="#222222" stroke-linecap="round"/>
<path d="M14.4816 14.5L14.4816 11.5" stroke="#222222" stroke-linecap="round"/>
<path d="M2.99622 6.5H20.9733V6.5C19.5731 6.5 18.8729 6.5 18.3695 6.83512C18.1489 6.98196 17.9597 7.17118 17.8128 7.39178C17.4777 7.89522 17.4777 8.59533 17.4777 9.99554V15.5C17.4777 17.3856 17.4777 18.3284 16.8919 18.9142C16.3062 19.5 15.3633 19.5 13.4777 19.5H10.4918C8.60614 19.5 7.66333 19.5 7.07754 18.9142C6.49175 18.3284 6.49175 17.3856 6.49175 15.5V9.99554C6.49175 8.59533 6.49175 7.89522 6.15664 7.39178C6.0098 7.17118 5.82058 6.98196 5.59998 6.83512C5.09653 6.5 4.39643 6.5 2.99622 6.5V6.5Z" stroke="#222222" stroke-linecap="round"/>
<path d="M9.48794 3.50024C9.48794 3.50024 9.9873 2.5 11.9848 2.5C13.9822 2.5 14.4816 3.5 14.4816 3.5" stroke="#222222" stroke-linecap="round"/>
</svg>
