<svg width="24" height="24" viewBox="0 0 24 24" fill="none" xmlns="http://www.w3.org/2000/svg">
<path d="M20.9733 12C20.9733 10.1195 20.385 8.28625 19.291 6.7577C18.1971 5.22915 16.6524 4.08209 14.874 3.47763C13.0956 2.87316 11.1727 2.84166 9.37551 3.38754C7.57829 3.93341 5.99698 5.02925 4.85366 6.52115C3.71035 8.01304 3.06248 9.82604 3.00103 11.7055C2.93958 13.585 3.46764 15.4366 4.51106 17.0001C5.55447 18.5637 7.06081 19.7608 8.81853 20.4232C10.5763 21.0856 12.497 21.18 14.3111 20.6933" stroke="#222222" stroke-linecap="round"/>
<ellipse cx="11.9846" cy="12" rx="3.9949" ry="4" stroke="#222222"/>
<path d="M15.9796 9V13.5032C15.9796 14.8821 17.0975 16 18.4764 16V16C19.8554 16 20.9732 14.8821 20.9732 13.5032V12" stroke="#222222" stroke-linecap="round"/>
</svg>
