<svg width="25" height="19" viewBox="0 0 25 19" fill="none" xmlns="http://www.w3.org/2000/svg">
<path d="M24 3C24 2.05719 24 1.58579 23.7071 1.29289C23.4142 1 22.9428 1 22 1H10.0628C9.6444 1 9.43519 1 9.24798 1.07942C9.06078 1.15885 8.91539 1.30929 8.62463 1.61016L2.34312 8.11017C1.70814 8.76723 1.39065 9.09576 1.39065 9.5C1.39065 9.90424 1.70814 10.2328 2.34312 10.8898L8.62463 17.3898C8.91539 17.6907 9.06078 17.8412 9.24798 17.9206C9.43519 18 9.6444 18 10.0628 18H22C22.9428 18 23.4142 18 23.7071 17.7071C24 17.4142 24 16.9428 24 16V3Z" stroke="#222222"/>
</svg>
