<svg width="29" height="26" viewBox="0 0 29 26" fill="none" xmlns="http://www.w3.org/2000/svg">
<path d="M1.37511 24.9873C1.47116 25.0123 27.7166 24.9488 27.8025 24.8991C27.8884 24.8494 1.80792 24.8175 1.83411 24.7218C2.60661 21.8395 5.74611 21.0925 7.62261 20.6455C8.09286 20.5338 8.46411 20.4453 8.70561 20.341C10.8431 19.4133 11.5399 17.9208 11.7484 16.8318C11.7608 16.767 11.7558 16.7001 11.7341 16.6378C11.7124 16.5755 11.6746 16.52 11.6246 16.477C10.5116 15.5163 9.57261 14.074 8.98011 12.415C8.9634 12.3674 8.9371 12.3238 8.90286 12.2868C8.11911 11.4348 7.66911 10.534 7.66911 9.81626C7.66911 9.39701 7.82736 9.11576 8.18361 8.90351C8.23697 8.87161 8.28157 8.82694 8.31338 8.77353C8.3452 8.72011 8.36323 8.65962 8.36586 8.59751C8.53161 4.77701 11.2526 1.76951 14.5901 1.75001L14.6704 1.75526C18.0244 1.80176 20.7281 4.87376 20.8249 8.74826C20.8262 8.80122 20.8388 8.85328 20.8618 8.901C20.8849 8.94871 20.9178 8.99098 20.9584 9.02501C21.1931 9.22376 21.3026 9.47576 21.3026 9.81776C21.3026 10.4185 20.9824 11.1573 20.4019 11.8968C20.3742 11.9323 20.3529 11.9724 20.3389 12.0153C19.7389 13.9173 18.6619 15.5965 17.3854 16.624C17.3325 16.6667 17.2922 16.7229 17.2686 16.7867C17.2451 16.8505 17.2393 16.9194 17.2519 16.9863C17.4604 18.0745 18.1571 19.5663 20.2946 20.4955C20.5474 20.605 20.9396 20.6905 21.4369 20.7978C23.2946 21.1998 26.4034 21.874 27.1661 24.7218C27.1789 24.7693 27.201 24.8139 27.231 24.853C27.261 24.892 27.2985 24.9248 27.3412 24.9494C27.3838 24.9739 27.431 24.9899 27.4798 24.9962C27.5287 25.0026 27.5783 24.9993 27.6259 24.9865C27.6734 24.9737 27.718 24.9517 27.7571 24.9216C27.7961 24.8916 27.8289 24.8542 27.8535 24.8115C27.878 24.7688 27.894 24.7217 27.9003 24.6728C27.9067 24.624 27.9034 24.5743 27.8906 24.5268C27.0094 21.2365 23.4874 20.4738 21.5959 20.0643C21.1571 19.969 20.7784 19.8873 20.5939 19.8063C19.1989 19.2003 18.3394 18.277 18.0356 17.0575C19.3309 15.9453 20.4146 14.2293 21.0341 12.3048C21.6919 11.4498 22.0534 10.5693 22.0534 9.81701C22.0534 9.31526 21.8914 8.89676 21.5704 8.56976C21.3919 4.36676 18.3926 1.05701 14.6704 1.00376L14.5586 1.00226C10.9039 1.02176 7.89186 4.24451 7.62861 8.37476C7.15911 8.71976 6.92061 9.20351 6.92061 9.81776C6.92061 10.705 7.42236 11.7663 8.30061 12.7398C8.90736 14.407 9.84786 15.8718 10.9676 16.897C10.6654 18.121 9.80511 19.0473 8.40711 19.654C8.22636 19.7328 7.86636 19.819 7.44936 19.918C5.54361 20.371 1.99761 21.2148 1.10961 24.5283C1.08397 24.6243 1.09753 24.7267 1.14732 24.8127C1.19711 24.8988 1.27904 24.9616 1.37511 24.9873Z" fill="black" stroke="black"/>
</svg>
