<svg width="24" height="24" viewBox="0 0 24 24" fill="none" xmlns="http://www.w3.org/2000/svg">
<path d="M4.5 6.89951C4.5 6.05943 4.5 5.63939 4.66349 5.31853C4.8073 5.03628 5.03677 4.80681 5.31901 4.663C5.63988 4.49951 6.05992 4.49951 6.9 4.49951H9.47237C9.84808 4.49951 10.0359 4.49951 10.2065 4.5513C10.3574 4.59715 10.4978 4.67231 10.6197 4.77249C10.7574 4.88565 10.8616 5.04196 11.07 5.35459L11.93 6.64484C12.1384 6.95746 12.2426 7.11377 12.3803 7.22693C12.5022 7.32711 12.6426 7.40228 12.7935 7.44813C12.9641 7.49991 13.1519 7.49991 13.5276 7.49991H17.1C17.9401 7.49991 18.3601 7.49991 18.681 7.6634C18.9632 7.80721 19.1927 8.03668 19.3365 8.31893C19.5 8.63979 19.5 9.05983 19.5 9.89991V16.0999C19.5 16.94 19.5 17.36 19.3365 17.6809C19.1927 17.9631 18.9632 18.1926 18.681 18.3364C18.3601 18.4999 17.9401 18.4999 17.1 18.4999H6.9C6.05992 18.4999 5.63988 18.4999 5.31901 18.3364C5.03677 18.1926 4.8073 17.9631 4.66349 17.6809C4.5 17.36 4.5 16.94 4.5 16.0999V6.89951Z" stroke="#222222"/>
</svg>
