<svg width="24" height="24" viewBox="0 0 24 24" fill="none" xmlns="http://www.w3.org/2000/svg">
<circle cx="12" cy="8" r="2.65" stroke="#222222" stroke-width="0.7" stroke-linecap="round"/>
<path d="M13.638 6.425C13.8507 6.05674 14.1677 5.7598 14.5491 5.57172C14.9305 5.38365 15.359 5.31289 15.7806 5.36839C16.2022 5.4239 16.5979 5.60317 16.9176 5.88354C17.2373 6.16392 17.4667 6.5328 17.5767 6.94354C17.6868 7.35428 17.6726 7.78843 17.5359 8.1911C17.3992 8.59376 17.1462 8.94685 16.8088 9.20571C16.4715 9.46457 16.0649 9.61759 15.6406 9.6454C15.2163 9.67321 14.7933 9.57457 14.425 9.36195" stroke="#222222" stroke-width="0.7"/>
<path d="M10.362 6.425C10.1493 6.05674 9.8323 5.7598 9.45092 5.57172C9.06954 5.38365 8.64096 5.31289 8.21937 5.36839C7.79778 5.4239 7.40211 5.60317 7.08241 5.88354C6.7627 6.16392 6.53332 6.5328 6.42326 6.94354C6.3132 7.35428 6.32741 7.78843 6.4641 8.1911C6.60079 8.59376 6.85381 8.94685 7.19116 9.20571C7.52852 9.46457 7.93506 9.61759 8.35938 9.6454C8.7837 9.67321 9.20674 9.57457 9.575 9.36195" stroke="#222222" stroke-width="0.7"/>
<path d="M12 12.5C16.0802 12.5 17.1335 15.8022 17.4054 17.507C17.4924 18.0524 17.0523 18.5 16.5 18.5H7.5C6.94771 18.5 6.50763 18.0524 6.59461 17.507C6.86649 15.8022 7.91976 12.5 12 12.5Z" stroke="#222222" stroke-width="0.7" stroke-linecap="round"/>
<path d="M19.2965 15.4162L18.957 15.5013L19.2965 15.4162ZM13.087 12.5859L12.8286 12.3499L12.3943 12.8256L13.0297 12.9312L13.087 12.5859ZM17.1813 16.5L16.845 16.5973L16.9182 16.85H17.1813V16.5ZM15.4999 11.85C16.5865 11.85 17.3489 12.3853 17.8982 13.1169C18.4549 13.8583 18.7778 14.7857 18.957 15.5013L19.636 15.3312C19.447 14.5764 19.0955 13.5457 18.458 12.6966C17.813 11.8376 16.8613 11.15 15.4999 11.15V11.85ZM13.3455 12.8219C13.8692 12.2484 14.5614 11.85 15.4999 11.85V11.15C14.3319 11.15 13.461 11.6573 12.8286 12.3499L13.3455 12.8219ZM13.0297 12.9312C15.4126 13.3272 16.4156 15.113 16.845 16.5973L17.5175 16.4027C17.0537 14.7997 15.9119 12.7006 13.1444 12.2406L13.0297 12.9312ZM18.3949 16.15H17.1813V16.85H18.3949V16.15ZM18.957 15.5013C19.0377 15.8238 18.7912 16.15 18.3949 16.15V16.85C19.1819 16.85 19.8427 16.1564 19.636 15.3312L18.957 15.5013Z" fill="#222222"/>
<path d="M10.9129 12.5859L10.9703 12.9312L11.6057 12.8256L11.1714 12.3499L10.9129 12.5859ZM4.70343 15.4162L5.04295 15.5013L4.70343 15.4162ZM6.81868 16.5V16.85H7.08177L7.15489 16.5973L6.81868 16.5ZM8.49999 11.85C9.4385 11.85 10.1308 12.2484 10.6544 12.8219L11.1714 12.3499C10.539 11.6573 9.66804 11.15 8.49999 11.15V11.85ZM5.04295 15.5013C5.22214 14.7857 5.54501 13.8583 6.10171 13.1169C6.65102 12.3853 7.41339 11.85 8.49999 11.85V11.15C7.13867 11.15 6.18688 11.8376 5.54194 12.6966C4.9044 13.5456 4.55295 14.5764 4.36391 15.3312L5.04295 15.5013ZM5.60498 16.15C5.20874 16.15 4.96217 15.8238 5.04295 15.5013L4.36391 15.3312C4.15725 16.1564 4.81797 16.85 5.60498 16.85V16.15ZM6.81868 16.15H5.60498V16.85H6.81868V16.15ZM7.15489 16.5973C7.58431 15.113 8.58735 13.3272 10.9703 12.9312L10.8555 12.2406C8.08801 12.7006 6.94623 14.7997 6.48247 16.4027L7.15489 16.5973Z" fill="#222222"/>
</svg>
