<svg width="24" height="24" viewBox="0 0 24 24" fill="none" xmlns="http://www.w3.org/2000/svg">
<path d="M22.5007 18.813L15.9735 15.7178C16.8442 15.2813 20.2451 15.1429 20.5264 14.3752C20.5264 14.3752 19.1824 12.3124 18.8542 9.633C18.7267 8.59312 18.5085 7.2285 18.2917 5.30663C17.94 2.18925 15.318 0 12.006 0H11.994C8.682 0 6.06 2.18925 5.70862 5.30625C5.49187 7.22812 5.27362 8.59275 5.14612 9.63263C4.818 12.3124 3.474 14.3749 3.474 14.3749C3.75525 15.1425 7.15575 15.2809 8.02688 15.7174L1.49925 18.813C1.49925 18.813 0 19.3395 0 20.5819V22.563C0 23.3921 0.670875 24 1.49925 24H22.5007C23.3291 24 24 23.3921 24 22.563V20.5819C24 19.3395 22.5007 18.813 22.5007 18.813ZM1.49998 22.5V20.5819C1.49998 20.502 1.78348 20.31 2.0141 20.2222C2.06395 20.2046 2.09473 20.1907 2.1416 20.1679L8.66883 17.0726C9.18745 16.8274 9.52008 16.3065 9.52648 15.7331C9.53248 15.1598 9.21148 14.6321 8.69883 14.3753C8.1907 14.1203 7.51908 13.9943 6.46645 13.812C6.2167 13.7681 5.87545 13.7066 5.54433 13.6406C5.9737 12.6772 6.44808 11.3299 6.63485 9.8055C6.68098 9.42598 6.74023 8.99888 6.80623 8.526C6.91985 7.72125 7.06048 6.70088 7.19885 5.47388C7.4606 3.15673 9.43198 1.49998 11.994 1.49998H12.006C14.568 1.49998 16.5397 3.15673 16.8011 5.47423C16.9395 6.70085 17.0801 7.72158 17.1937 8.52635C17.2597 8.99923 17.319 9.42635 17.3651 9.80585C17.5519 11.3299 18.0266 12.6772 18.4556 13.641C18.1245 13.707 17.7832 13.7685 17.5335 13.8124C16.4809 13.9946 15.8092 14.1206 15.3011 14.3756C14.7885 14.6329 14.4675 15.1601 14.4735 15.7335C14.4802 16.3069 14.8125 16.8277 15.3311 17.073L21.8583 20.1682C21.9052 20.1911 21.936 20.205 21.9858 20.2226C22.2165 20.3104 22.4662 20.5024 22.5 20.5822L22.5007 22.5H1.5L1.49998 22.5Z" fill="black"/>
</svg>
