<svg width="24" height="24" viewBox="0 0 24 24" fill="none" xmlns="http://www.w3.org/2000/svg">
<path d="M10 2.5H12C13.8998 2.5 15.2743 2.50106 16.3225 2.64199C17.3563 2.78098 17.9975 3.04772 18.4749 3.52513C18.9523 4.00253 19.219 4.64373 19.358 5.67754C19.4989 6.72573 19.5 8.10025 19.5 10V12C19.5 13.8998 19.4989 15.2743 19.358 16.3225C19.219 17.3563 18.9523 17.9975 18.4749 18.4749C17.9975 18.9523 17.3563 19.219 16.3225 19.358C15.2743 19.4989 13.8998 19.5 12 19.5H10C8.10025 19.5 6.72573 19.4989 5.67754 19.358C4.64373 19.219 4.00253 18.9523 3.52513 18.4749C3.04772 17.9975 2.78098 17.3563 2.64199 16.3225C2.50106 15.2743 2.5 13.8998 2.5 12V10C2.5 8.10025 2.50106 6.72573 2.64199 5.67754C2.78098 4.64373 3.04772 4.00253 3.52513 3.52513C4.00253 3.04772 4.64373 2.78098 5.67754 2.64199C6.72573 2.50106 8.10025 2.5 10 2.5Z" stroke="#222222"/>
<path d="M7.5 12L9.5 13.5L14 8" stroke="#222222"/>
<path d="M22 7V16C22 19.3137 19.3137 22 16 22H6.5" stroke="black" stroke-linecap="round" stroke-linejoin="round"/>
</svg>
